:SAMPLES-PER-SECOND 30
:FRAME-RANGE 1-4244
:FULLY-SPECIFIED
:DEGREES
1592
root  18.2895 38.8071 -69.8847 178.09 -68.8863 -177.981
RightUpLeg  -20.5833 9.72299 -13.5739
RightLeg  25.0571 -5.30786 -2.92136
RightFoot  -1.79615 -1.15879 13.6715
RightToes  -3.31784e-009 0 -3.6325e-017
Spine  13.8341 0.438564 4.91325
Spine1  -0.788276 1.70883 -3.52432
HEad  -10.8932 46.2253 -21.3238
LeftShoulder1  1.58974 -0.926381 -29.8242
LeftArm  16.1337 -2.70991 -46.691
LeftForeArm  43.2916 -60.3243 -15.7013
LeftHand  0.619194 -4.40514 -7.04902
RightShoulder  4.66152 6.39505 40.9751
RightArm  10.4177 -5.3967 10.2422
RightForeArm  14.5548 5.45795 15.4028
RightHand  -0.235178 3.37472 -3.35869
LeftUpLeg  -9.26877 -0.893287 -10.74
LeftLeg  23.7148 0.391494 0.531473
LeftFoot  -11.2776 0.0626836 9.5134
LeftToes  1.0277e-010 -6.71454e-011 3.04227e-011
1593
root  17.4593 38.8689 -70.8252 176.857 -74.4105 -176.765
RightUpLeg  -16.4253 10.8747 -14.1278
RightLeg  14.9599 -0.340884 -1.48089
RightFoot  0.0925897 -1.47721 14.6876
RightToes  -3.31784e-009 0 -3.6325e-017
Spine  12.7709 -0.246938 4.72344
Spine1  0.308642 0.825886 -2.84889
HEad  -13.2227 48.0653 -21.6434
LeftShoulder1  1.58413 -0.902533 -29.8918
LeftArm  18.4398 -1.84965 -48.2309
LeftForeArm  40.619 -59.6155 -15.4575
LeftHand  0.635619 -4.35806 -7.28117
RightShoulder  3.06312 3.2228 39.5373
RightArm  12.8266 -8.69482 9.52222
RightForeArm  14.3746 4.35207 16.0324
RightHand  -0.225166 3.25094 -3.2637
LeftUpLeg  -7.12565 -3.5633 -9.65045
LeftLeg  24.1447 -1.89114 -0.586322
LeftFoot  -12.7141 0.187109 9.20118
LeftToes  1.0277e-010 -6.71454e-011 3.04227e-011
1594
root  16.6911 38.6575 -71.7972 175.277 -80.5615 -175.427
RightUpLeg  -12.6944 3.09701 -12.9054
RightLeg  12.1614 5.87786 -2.06756
RightFoot  -2.29671 -1.56357 19.3961
RightToes  -3.31784e-009 0 -3.6325e-017
Spine  12.2201 -0.830172 4.60224
Spine1  1.10647 0.102682 -2.37128
HEad  -15.9606 49.5747 -22.8681
LeftShoulder1  1.55208 -0.822283 -29.8158
LeftArm  19.6404 -1.96941 -48.4951
LeftForeArm  39.71 -58.5872 -14.8385
LeftHand  0.625814 -4.45116 -7.09069
RightShoulder  1.48141 -0.14067 38.2525
RightArm  18.5032 -12.804 9.40952
RightForeArm  10.7734 5.25748 16.3427
RightHand  -0.204961 3.28975 -2.98159
LeftUpLeg  -6.50615 -6.17297 -8.69731
LeftLeg  27.5826 -4.00719 -1.92684
LeftFoot  -15.182 0.390773 8.90805
LeftToes  1.0277e-010 -6.71454e-011 3.04227e-011
1595
root  16.0723 38.3107 -72.6525 155.474 -85.8173 -155.528
RightUpLeg  -12.3761 -0.590354 -12.196
RightLeg  17.7968 2.96078 -0.80236
RightFoot  -7.25321 -0.819981 21.3468
RightToes  -3.31784e-009 0 -3.6325e-017
Spine  12.9387 -1.29418 7.11521
Spine1  0.620593 0.012811 -2.17348
HEad  -20.0664 50.7477 -26.1978
LeftShoulder1  1.47525 -0.601781 -29.8693
LeftArm  19.4376 -2.47223 -47.6715
LeftForeArm  39.7712 -57.5194 -14.1443
LeftHand  0.542227 -4.17028 -6.30713
RightShoulder  0.132371 -3.17039 37.3637
RightArm  24.3095 -16.868 9.51144
RightForeArm  8.13009 6.10995 16.538
RightHand  -0.187203 3.35048 -2.72924
LeftUpLeg  -8.71568 -6.13865 -6.05624
LeftLeg  34.6647 -6.11224 -4.17709
LeftFoot  -17.4967 0.483397 7.02294
LeftToes  1.0277e-010 -6.71454e-011 3.04227e-011
1596
root  15.5471 37.992 -73.4102 84.8503 -87.0406 -84.6341
RightUpLeg  -13.2199 -4.39628 -10.9183
RightLeg  23.5681 2.56228 0.99652
RightFoot  -10.6791 -0.190854 20.1701
RightToes  -3.31784e-009 0 -3.6325e-017
Spine  13.5195 -1.50211 9.89025
Spine1  0.994222 0.440278 -3.29577
HEad  -26.8113 51.7788 -33.0314
LeftShoulder1  1.38008 -0.235062 -30.8549
LeftArm  16.6817 -3.26137 -46.8879
LeftForeArm  39.3402 -54.5729 -12.4974
LeftHand  0.318499 -3.92043 -3.70852
RightShoulder  -0.0602951 -3.61071 37.8836
RightArm  27.9399 -18.9853 9.21343
RightForeArm  7.38964 4.91921 17.3763
RightHand  -0.183121 3.37362 -2.66956
LeftUpLeg  -13.492 -3.62158 -3.06497
LeftLeg  44.4564 -6.47545 -6.37055
LeftFoot  -16.1413 0.201314 2.4904
LeftToes  1.0277e-010 -6.71454e-011 3.04227e-011
1597
root  14.985 37.8293 -74.1493 35.7402 -84.5174 -35.539
RightUpLeg  -12.861 -8.45331 -9.87633
RightLeg  27.4258 2.36831 1.09275
RightFoot  -13.4415 0.256536 18.852
RightToes  -3.31784e-009 0 -3.6325e-017
Spine  13.9391 -1.22813 9.40893
Spine1  1.48898 0.489813 -1.65434
HEad  -30.7496 52.9457 -36.3756
LeftShoulder1  1.343 -0.1173 -31.0309
LeftArm  13.3214 -2.91779 -46.4462
LeftForeArm  37.7281 -50.5163 -10.6958
LeftHand  0.0280542 -3.22397 -0.142514
RightShoulder  0.492284 -2.40397 39.7061
RightArm  32.7036 -18.4763 8.85809
RightForeArm  7.38266 1.55007 18.882
RightHand  -0.105541 3.32105 -1.64796
LeftUpLeg  -18.1247 0.0764723 -1.12368
LeftLeg  52.4416 -5.99861 -7.86368
LeftFoot  -10.817 0.0817089 -3.68567
LeftToes  1.0277e-010 -6.71454e-011 3.04227e-011
1598
root  14.3472 37.8005 -74.8101 18.6376 -80.9858 -18.6898
RightUpLeg  -11.1682 -11.1895 -9.53409
RightLeg  29.206 1.42675 0.614127
RightFoot  -15.8031 0.609814 18.2815
RightToes  -3.31784e-009 0 -3.6325e-017
Spine  14.4795 -0.992825 8.80883
Spine1  1.26231 0.71246 -1.5008
HEad  -31.7408 53.925 -36.3388
LeftShoulder1  1.32617 -0.0865399 -30.8784
LeftArm  11.3548 -2.21131 -44.6148
LeftForeArm  35.497 -47.8819 -9.78193
LeftHand  -0.0871039 -2.42756 1.49401
RightShoulder  1.07958 -1.26526 42.4173
RightArm  32.9505 -16.2829 8.5846
RightForeArm  13.5462 0.8768 18.9185
RightHand  0.184733 3.84416 2.05851
LeftUpLeg  -21.9323 3.62182 -0.181655
LeftLeg  57.6186 -4.46206 -7.04185
LeftFoot  -5.68555 0.571026 -10.8474
LeftToes  1.0277e-010 -6.71454e-011 3.04227e-011
1599
root  13.6206 37.8328 -75.2933 11.9581 -77.2536 -12.0865
RightUpLeg  -9.02747 -13.0753 -9.20332
RightLeg  29.7085 -0.129842 -0.332586
RightFoot  -17.5182 0.867318 18.1516
RightToes  -3.31784e-009 0 -3.6325e-017
Spine  14.4252 -0.968766 9.02824
Spine1  0.862475 0.923156 -2.4444
HEad  -30.496 54.7424 -34.5681
LeftShoulder1  1.26287 0.0962536 -31.0006
LeftArm  10.1895 -1.22952 -41.275
LeftForeArm  33.2731 -46.551 -9.43489
LeftHand  -0.0436707 -2.77185 0.837436
RightShoulder  1.56608 -0.341334 43.4593
RightArm  28.6756 -15.3215 9.70335
RightForeArm  16.6886 -0.318766 18.745
RightHand  0.236047 3.72822 2.74574
LeftUpLeg  -24.4674 6.90883 -0.271188
LeftLeg  58.8988 -2.50471 -3.94749
LeftFoot  -4.87135 0.637772 -10.7447
LeftToes  1.0277e-010 -6.71454e-011 3.04227e-011
1600
root  12.8452 38.0979 -75.5947 7.14978 -73.2707 -6.91339
RightUpLeg  -5.96765 -16.1369 -9.60853
RightLeg  27.6615 -1.08063 -0.859577
RightFoot  -17.7384 0.896891 18.0786
RightToes  -3.31784e-009 0 -3.6325e-017
Spine  14.1146 -0.865664 8.51633
Spine1  0.00999755 0.953118 -3.24404
HEad  -28.4645 54.8049 -32.6018
LeftShoulder1  1.21775 0.260416 -31.4857
LeftArm  9.68936 0.49396 -37.4847
LeftForeArm  31.978 -46.4569 -9.49155
LeftHand  -0.00606113 -3.24219 0.31885
RightShoulder  1.58532 -0.279179 43.1196
RightArm  28.1419 -14.7361 11.5235
RightForeArm  11.7113 -0.913624 18.9301
RightHand  0.219648 3.61602 2.57688
LeftUpLeg  -26.3976 10.0219 -1.86479
LeftLeg  56.7782 -0.563569 -0.41592
LeftFoot  -6.83162 0.344101 -7.69267
LeftToes  1.0277e-010 -6.71454e-011 3.04227e-011
1601
root  12.0604 38.4429 -75.7618 4.5929 -69.752 -3.8018
RightUpLeg  -2.65491 -19.0122 -10.1806
RightLeg  24.4033 -1.76293 -1.10051
RightFoot  -17.0506 0.807316 18.3802
RightToes  -3.31784e-009 0 -3.6325e-017
Spine  13.7348 -0.370606 7.81769
Spine1  -0.985524 1.29495 -3.89885
HEad  -26.1676 53.8179 -30.6773
LeftShoulder1  1.20707 0.311422 -31.7509
LeftArm  9.31666 2.67784 -34.4608
LeftForeArm  31.0113 -46.9782 -9.75713
LeftHand  0.0100551 -3.09977 0.0928083
RightShoulder  1.5807 -0.243526 42.482
RightArm  24.9697 -14.2065 12.6026
RightForeArm  10.2032 2.3014 17.9736
RightHand  0.187071 3.41103 2.2226
LeftUpLeg  -27.3178 13.9471 -4.07554
LeftLeg  51.0423 1.44146 2.36341
LeftFoot  -8.842 0.174058 -5.54816
LeftToes  1.0277e-010 -6.71454e-011 3.04227e-011
1602
root  11.3009 38.8183 -75.8227 2.93286 -66.7566 -1.21672
RightUpLeg  0.42241 -20.5227 -10.9616
RightLeg  20.5236 -3.2539 -0.999061
RightFoot  -15.6537 0.613299 18.9698
RightToes  -3.31784e-009 0 -3.6325e-017
Spine  12.9265 0.42465 6.56317
Spine1  -1.52145 1.85923 -4.3424
HEad  -24.2009 52.2645 -29.1132
LeftShoulder1  1.1546 0.447304 -31.7131
LeftArm  8.22269 5.08687 -32.4156
LeftForeArm  30.414 -47.7598 -10.1042
LeftHand  0.0177993 -3.05273 -0.016907
RightShoulder  1.77674 0.221416 41.6981
RightArm  30.8054 -13.5086 13.2
RightForeArm  2.63507 9.4248 15.632
RightHand  0.160953 3.51463 1.84881
LeftUpLeg  -27.3556 18.7041 -7.1392
LeftLeg  42.1109 4.43997 4.67555
LeftFoot  -10.1737 0.109587 -4.77048
LeftToes  1.0277e-010 -6.71454e-011 3.04227e-011
1603
root  10.5703 39.1026 -75.7652 2.29773 -63.712 0.344345
RightUpLeg  3.37445 -21.2426 -11.6784
RightLeg  16.9217 -5.40819 -0.505612
RightFoot  -14.2572 0.408146 19.6871
RightToes  -3.31784e-009 0 -3.6325e-017
Spine  12.0719 1.06532 5.53874
Spine1  -1.84155 2.39794 -4.83967
HEad  -22.3243 50.589 -27.3704
LeftShoulder1  1.08562 0.607987 -31.4235
LeftArm  6.78099 7.65776 -30.9637
LeftForeArm  30.0271 -49.0088 -10.6406
LeftHand  0.0191346 -2.84271 -0.0523323
RightShoulder  2.12061 1.03328 40.745
RightArm  37.4224 -12.659 13.5326
RightForeArm  -3.7166 15.7024 11.5653
RightHand  0.0843542 3.72299 0.816311
LeftUpLeg  -26.3558 24.2955 -10.7082
LeftLeg  30.9417 6.75862 4.70241
LeftFoot  -10.3716 0.099578 -4.42091
LeftToes  1.0277e-010 -6.71454e-011 3.04227e-011
